<svg width="44" height="33" viewBox="0 0 44 33" fill="none" xmlns="http://www.w3.org/2000/svg">
<path d="M20.7662 2.72644L17.9612 0.398926C7.4009 6.38398 2.45078 13.2003 1.13075 20.8478C0.140727 27.1654 2.61579 32.1529 8.88594 32.1529C13.3411 32.1529 17.6312 29.1604 18.6212 24.1729C19.4462 18.3541 16.1461 14.8628 12.021 14.0315C13.6711 8.379 20.6012 2.72644 20.7662 2.72644ZM34.9566 13.699C36.7716 8.21275 43.3718 2.72644 43.5368 2.72644L40.7317 0.398926C30.1715 6.38398 25.2213 13.2003 23.9013 20.8478C22.9113 27.1654 25.3863 32.1529 31.6565 32.1529C36.1116 32.1529 40.4017 29.1604 41.2267 24.1729C42.2168 18.3541 39.0817 14.5303 34.9566 13.699Z" fill="url(#paint0_radial_23_918)"/>
<defs>
<radialGradient id="paint0_radial_23_918" cx="0" cy="0" r="1" gradientUnits="userSpaceOnUse" gradientTransform="translate(13.0959 5.84247) rotate(60.9542) scale(30.0955 36.1562)">
<stop stop-color="#FFA800"/>
<stop offset="1" stop-color="#FF4D00"/>
</radialGradient>
</defs>
</svg>
