<svg width="50" height="51" viewBox="0 0 50 51" fill="none" xmlns="http://www.w3.org/2000/svg">
<g clip-path="url(#clip0_7_1492)">
<path d="M15.1896 23.471C15.0449 23.2817 14.8538 23.1329 14.6348 23.039C14.4158 22.9452 14.1763 22.9093 13.9394 22.9351C13.7025 22.9608 13.4763 23.0472 13.2826 23.186C13.0889 23.3247 12.9343 23.511 12.8336 23.727L0.895514 47.5957C0.78676 47.8132 0.73541 48.0549 0.746342 48.2978C0.757275 48.5408 0.830126 48.7769 0.957984 48.9838C1.08583 49.1907 1.26445 49.3615 1.47686 49.4799C1.68927 49.5984 1.92843 49.6606 2.17163 49.6606H18.7948C19.061 49.6668 19.3233 49.5955 19.5499 49.4555C19.7763 49.3155 19.9574 49.1127 20.0709 48.8718C23.6567 41.4621 21.4836 30.1957 15.1896 23.471Z" fill="url(#paint0_linear_7_1492)"/>
<path d="M23.9455 1.76119C20.9709 6.33819 19.2374 11.6099 18.9151 17.0591C18.5929 22.5083 19.693 27.9476 22.1075 32.8433L30.1216 48.8716C30.2401 49.1087 30.4222 49.308 30.6476 49.4473C30.8731 49.5866 31.1328 49.6604 31.3978 49.6604H48.0179C48.2611 49.6604 48.5002 49.5982 48.7127 49.4798C48.9251 49.3613 49.1037 49.1906 49.2316 48.9837C49.3594 48.7768 49.4322 48.5407 49.4431 48.2978C49.4541 48.0548 49.4028 47.8131 49.294 47.5955C49.294 47.5955 26.9343 2.8709 26.3724 1.75224C26.2613 1.52453 26.0882 1.33275 25.8731 1.19891C25.658 1.06506 25.4095 0.994558 25.1561 0.995493C24.9028 0.996428 24.6548 1.06876 24.4407 1.20419C24.2266 1.33963 24.0549 1.53267 23.9455 1.76119Z" fill="#2684FF"/>
</g>
<defs>
<linearGradient id="paint0_linear_7_1492" x1="21.7321" y1="27.1546" x2="9.13358" y2="48.9763" gradientUnits="userSpaceOnUse">
<stop stop-color="#0052CC"/>
<stop offset="0.923" stop-color="#2684FF"/>
</linearGradient>
<clipPath id="clip0_7_1492">
<rect width="50" height="50" fill="white" transform="translate(0 0.250671)"/>
</clipPath>
</defs>
</svg>
