<svg width="100" height="13" viewBox="0 0 100 13" fill="none" xmlns="http://www.w3.org/2000/svg">
<path d="M3.63116 5.90075C3.59478 5.85316 3.54675 5.81576 3.49171 5.79216C3.43664 5.76854 3.37644 5.75955 3.31687 5.76601C3.25732 5.77248 3.20045 5.79421 3.15174 5.82908C3.10304 5.86396 3.06417 5.91081 3.03886 5.96511L0.0375443 11.9659C0.0102028 12.0205 -0.00270644 12.0813 4.23039e-05 12.1424C0.00279106 12.2035 0.0211066 12.2629 0.0532499 12.3149C0.0853931 12.3669 0.130297 12.4098 0.183699 12.4396C0.2371 12.4694 0.297227 12.485 0.35837 12.485H4.53754C4.60448 12.4866 4.67043 12.4687 4.72737 12.4334C4.78433 12.3982 4.82983 12.3473 4.85837 12.2867C5.75987 10.4238 5.21353 7.59137 3.63116 5.90075Z" fill="url(#paint0_linear_7_1496)"/>
<path d="M5.83249 0.44281C5.08465 1.5935 4.64884 2.91885 4.56782 4.28881C4.48681 5.65878 4.76338 7.02626 5.37039 8.25707L7.38522 12.2867C7.41501 12.3463 7.46081 12.3964 7.51747 12.4314C7.57413 12.4665 7.63942 12.485 7.70604 12.485H11.8845C11.9456 12.485 12.0057 12.4694 12.0591 12.4396C12.1125 12.4098 12.1574 12.3669 12.1896 12.3149C12.2217 12.2629 12.24 12.2035 12.2428 12.1424C12.2455 12.0813 12.2326 12.0206 12.2053 11.9659C12.2053 11.9659 6.5839 0.721797 6.44263 0.440559C6.41469 0.383312 6.3712 0.335098 6.31711 0.301447C6.26302 0.267797 6.20056 0.250072 6.13685 0.250307C6.07315 0.250543 6.01083 0.268727 5.95698 0.302776C5.90315 0.336825 5.86 0.385359 5.83249 0.44281Z" fill="#2684FF"/>
<path d="M54.8432 5.25424C54.8432 6.74016 55.5325 7.9199 58.2287 8.44073C59.8373 8.77844 60.1743 9.0381 60.1743 9.57431C60.1743 10.0951 59.8366 10.4323 58.7036 10.4323C57.3342 10.4077 55.9921 10.0445 54.7972 9.37525V11.7955C55.6092 12.1938 56.6814 12.6381 58.673 12.6381C61.4917 12.6381 62.6101 11.3811 62.6101 9.51296L54.8432 5.25424ZM62.6101 9.51296C62.6101 7.75123 61.6756 6.92384 59.0407 6.35724C57.5854 6.03547 57.233 5.7139 57.233 5.25424C57.233 4.67262 57.7538 4.42703 58.7189 4.42703C59.8833 4.42703 61.0323 4.77938 62.1199 5.26962V2.9563C61.0769 2.48163 59.9411 2.24611 58.7955 2.26699C56.1912 2.26699 54.8432 3.40058 54.8432 5.25424" fill="#0052CC"/>
<path d="M91.0567 2.4201V12.485H93.2013V4.80997L94.1053 6.84731L97.1385 12.485H99.8347V2.4201H97.6901V8.9156L96.878 7.03117L94.4422 2.4201H91.0567Z" fill="#0052CC"/>
<path d="M77.4158 2.4201H75.0719V12.485H77.4158V2.4201Z" fill="#0052CC"/>
<path d="M72.3674 9.51296C72.3674 7.75123 71.4328 6.92384 68.7979 6.35724C67.3426 6.03547 66.9902 5.7139 66.9902 5.25424C66.9902 4.67262 67.5111 4.42703 68.4762 4.42703C69.6405 4.42703 70.7895 4.77938 71.8771 5.26962V2.9563C70.8343 2.48163 69.6985 2.24611 68.5527 2.26699C65.9484 2.26699 64.6004 3.40058 64.6004 5.25424C64.6004 6.74016 65.2897 7.9199 67.9859 8.44073C69.5946 8.77844 69.9315 9.0381 69.9315 9.57431C69.9315 10.0951 69.5938 10.4323 68.4608 10.4323C67.0914 10.4077 65.7493 10.0445 64.5544 9.37525V11.7955C65.3664 12.1938 66.4387 12.6381 68.4302 12.6381C71.249 12.6381 72.3674 11.3811 72.3674 9.51296Z" fill="#0052CC"/>
<path d="M36.6351 2.4201V12.485H41.4527L42.2113 10.3096H38.9942V2.4201H36.6351Z" fill="#0052CC"/>
<path d="M27.1169 2.4201V4.59534H29.7212V12.485H32.0803V4.59534H34.8685V2.4201H27.1169Z" fill="#0052CC"/>
<path d="M23.6961 2.4201H20.6043L17.0946 12.485H19.7749L20.2724 10.7899C21.4977 11.1497 22.8009 11.1497 24.0263 10.7899L24.5238 12.485H27.2047L23.6961 2.4201ZM22.1501 8.97489C21.7135 8.97487 21.2792 8.91238 20.8602 8.78934L22.1501 4.39703L23.44 8.79084C23.021 8.91337 22.5867 8.97536 22.1501 8.97489Z" fill="#0052CC"/>
<path d="M49.7582 2.4201H46.6666L43.1568 12.485H45.8377L46.3353 10.7899C47.5608 11.1497 48.8638 11.1497 50.0891 10.7899L50.5867 12.485H53.2675L49.7582 2.4201ZM48.2124 8.97489C47.7758 8.97487 47.3415 8.91238 46.9225 8.78934L48.2124 4.39703L49.5022 8.79084C49.0833 8.91337 48.649 8.97536 48.2124 8.97489Z" fill="#0052CC"/>
<path d="M85.8619 2.4201H82.7704L79.2606 12.485H81.9415L82.439 10.7899C83.6644 11.1497 84.9675 11.1497 86.1929 10.7899L86.6904 12.485H89.3715L85.8619 2.4201ZM84.3152 8.97489C83.8786 8.97487 83.4443 8.91238 83.0253 8.78934L84.3152 4.39703L85.6051 8.79084C85.1861 8.91337 84.7518 8.97536 84.3152 8.97489Z" fill="#0052CC"/>
<defs>
<linearGradient id="paint0_linear_7_1496" x1="5.276" y1="6.82683" x2="2.10865" y2="12.3129" gradientUnits="userSpaceOnUse">
<stop stop-color="#0052CC"/>
<stop offset="0.923" stop-color="#2684FF"/>
</linearGradient>
</defs>
</svg>
