<svg width="100" height="28" viewBox="0 0 100 28" fill="none" xmlns="http://www.w3.org/2000/svg">
<path fill-rule="evenodd" clip-rule="evenodd" d="M76.1006 25.4869C76.1006 26.7488 75.0946 27.7136 73.8278 27.7136C72.5982 27.7136 71.5923 26.7488 71.5923 25.4869V2.4774C71.5923 1.2527 72.561 0.250671 73.8278 0.250671C75.0946 0.250671 76.1006 1.2527 76.1006 2.4774V25.4869ZM32.3346 2.88583C32.3346 4.22187 31.2168 5.11256 29.7638 5.11256C28.3107 5.11256 27.1929 4.22187 27.1929 2.88583V2.66316C27.1929 1.32712 28.3107 0.473541 29.7638 0.473541C31.2168 0.473541 32.3346 1.32712 32.3346 2.66316V2.88583ZM22.7277 24.4849C20.2686 26.6374 17.4743 27.9734 13.2641 27.9734C5.6633 27.9734 0 22.0727 0 14.613V14.5389C0 7.15353 5.55152 1.10425 13.4503 1.10425C17.4743 1.10425 20.1196 2.29184 22.3924 4.03611C22.8767 4.40724 23.2866 5.03814 23.2866 5.8546C23.2866 7.11641 22.2806 8.08133 21.0139 8.08133C20.3804 8.08133 19.9333 7.85866 19.6352 7.63599C17.8468 6.18861 15.9094 5.29792 13.4131 5.29792C8.45768 5.29792 4.80635 9.38026 4.80635 14.4646V14.5389C4.80635 19.6232 8.42043 23.7427 13.4131 23.7427C16.1702 23.7427 18.0332 22.852 19.9334 21.2561C20.2686 20.9593 20.753 20.7366 21.3119 20.7366C22.4669 20.7366 23.4729 21.7015 23.4729 22.852C23.4729 23.5571 23.1375 24.1137 22.7277 24.4849ZM29.7649 27.7136C31.0317 27.7136 32.0377 26.7488 32.0377 25.4869V9.97406C32.0377 8.71224 31.0317 7.71022 29.7649 7.71022C28.4981 7.71022 27.5294 8.71224 27.5294 9.97406V25.4869C27.5294 26.7488 28.5353 27.7136 29.7649 27.7136ZM41.5712 25.4869C41.5712 26.7117 40.5652 27.7136 39.2984 27.7136C38.0689 27.7136 37.063 26.7488 37.063 25.4869V9.97406C37.063 8.71224 38.0317 7.71022 39.2984 7.71022C40.5652 7.71022 41.5712 8.71224 41.5712 9.97406V11.9781C42.6145 9.52871 44.5519 7.6731 46.5266 7.6731C47.9424 7.6731 48.7621 8.6009 48.7621 9.89983C48.7621 11.0874 47.9797 11.8668 46.9737 12.0524C43.7695 12.609 41.5712 15.0584 41.5712 19.6974V25.4869ZM60.0095 27.9734C63.2883 27.9734 65.412 26.8601 67.1632 25.1901C67.573 24.856 67.7965 24.3735 67.7965 23.7798C67.7965 22.7035 66.9396 21.8128 65.8591 21.8128C65.3375 21.8128 64.8904 22.0727 64.6296 22.2953C63.4001 23.3344 62.0215 24.0396 60.2331 24.0396C56.768 24.0396 54.3462 21.2561 54.3462 17.7676V17.6933C54.3462 14.2791 56.768 11.4585 60.0468 11.4585C61.8351 11.4585 63.102 12.1636 64.257 13.1286C64.555 13.3513 65.0394 13.5739 65.5983 13.5739C66.7534 13.5739 67.6848 12.6832 67.6848 11.5328C67.6848 10.7905 67.2749 10.2338 66.9768 9.97406C65.3002 8.52668 63.1765 7.52465 60.0841 7.52465C54.1599 7.52465 49.8379 12.2008 49.8379 17.7676V17.8419C49.8379 23.4087 54.1599 27.9734 60.0095 27.9734ZM90.1443 27.9734C93.1994 27.9734 95.435 26.9714 97.2234 25.3755C97.5587 25.0416 97.8195 24.5591 97.8195 24.0025C97.8195 22.9632 97.037 22.1839 96.0311 22.1839C95.5095 22.1839 95.2114 22.3324 94.876 22.5922C93.6093 23.6313 92.1189 24.2993 90.2188 24.2993C87.3126 24.2993 85.0398 22.5179 84.5555 19.3263H96.888C98.0431 19.3263 99.0119 18.4356 99.0119 17.1737C99.0119 12.6461 95.9193 7.52461 89.6599 7.52461C84.0339 7.52461 80.0472 12.1265 80.0472 17.7305V17.8046C80.0472 23.8539 84.4437 27.9734 90.1443 27.9734ZM84.5181 16.3574H94.6152C94.3171 13.4627 92.6032 11.1988 89.6225 11.1988C86.8653 11.1988 84.9279 13.3142 84.5181 16.3574Z" fill="#3E45EB"/>
</svg>
