<svg width="100" height="21" viewBox="0 0 100 21" fill="none" xmlns="http://www.w3.org/2000/svg">
<g clip-path="url(#clip0_7_1512)">
<path d="M7.76054 3.19977C6.59278 3.19977 6.25514 3.71771 6.25514 4.86007V6.75514H9.37002L9.05779 9.81676H6.25635V19.1081H2.51827V9.81676H0V6.75514H2.51827V4.91211C2.51827 1.82387 3.76349 0.192614 7.23776 0.192614C7.96578 0.19092 8.69332 0.23412 9.416 0.322097V3.20341L7.76054 3.19977Z" fill="#1877F2"/>
<path d="M9.62921 12.542C9.62921 9.09074 11.2641 6.49139 14.69 6.49139C16.5584 6.49139 17.6995 7.45224 18.2454 8.64543V6.7552H21.826V19.1081H18.2454V17.2397C17.7262 18.4342 16.5584 19.3683 14.69 19.3683C11.2641 19.3683 9.62921 16.7726 9.62921 13.3177V12.542ZM13.3661 13.3734C13.3661 15.2152 14.0401 16.4349 15.7791 16.4349C17.3111 16.4349 18.0892 15.3193 18.0892 13.5549V12.3145C18.0892 10.5502 17.3111 9.43443 15.7791 9.43443C14.0401 9.43443 13.3661 10.6542 13.3661 12.496V13.3734Z" fill="#1877F2"/>
<path d="M29.6121 6.49487C31.0643 6.49487 32.4401 6.80708 33.1928 7.32502L32.3627 9.97278C31.5841 9.602 30.7333 9.40692 29.8711 9.40159C27.8465 9.40159 26.9668 10.5694 26.9668 12.5685V13.2946C26.9668 15.2937 27.8489 16.4614 29.8711 16.4614C30.7333 16.456 31.5841 16.2611 32.3627 15.8903L33.1928 18.5368C32.4401 19.056 31.0654 19.3683 29.6121 19.3683C25.2254 19.3683 23.2274 17.006 23.2274 13.2171V12.646C23.2274 8.85703 25.2254 6.49487 29.6121 6.49487Z" fill="#1877F2"/>
<path d="M33.6852 13.4035V12.3144C33.6852 8.81106 35.6832 6.50574 39.7589 6.50574C43.5998 6.50574 45.2867 8.84129 45.2867 12.2672V14.2397H37.4208C37.4995 15.9266 38.2522 16.6792 40.3252 16.6792C41.7278 16.6792 43.2065 16.3937 44.2968 15.9266L44.9805 18.4861C43.9943 19.0064 41.9697 19.3948 40.18 19.3948C35.4495 19.3935 33.6852 17.0338 33.6852 13.4035ZM37.4221 11.794H41.9383V11.483C41.9383 10.1337 41.3937 9.06274 39.76 9.06274C38.0719 9.06396 37.4221 10.1289 37.4221 11.7892V11.794Z" fill="#1877F2"/>
<path d="M59.1386 13.3212C59.1386 16.7724 57.4783 19.3718 54.056 19.3718C52.1876 19.3718 50.8903 18.4376 50.3711 17.2432V19.1116H46.8424V0.55194L50.5794 0.213104V8.46617C51.1238 7.37706 52.3182 6.49366 54.0573 6.49366C57.483 6.49366 59.1397 9.08939 59.1397 12.5443L59.1386 13.3212ZM55.4017 12.4644C55.4017 10.7255 54.7276 9.42822 52.9367 9.42822C51.4046 9.42822 50.5744 10.5173 50.5744 12.2829V13.5802C50.5744 15.3445 51.4046 16.4348 52.9367 16.4348C54.7276 16.4348 55.4017 15.1376 55.4017 13.3986V12.4644Z" fill="#1877F2"/>
<path d="M60.3887 13.2425V12.6205C60.3887 9.06397 62.4133 6.49487 66.5398 6.49487C70.6664 6.49487 72.6921 9.06397 72.6921 12.6205V13.2425C72.6921 16.798 70.6676 19.3683 66.5411 19.3683C62.4144 19.3683 60.3887 16.798 60.3887 13.2425ZM68.954 12.3603C68.954 10.7255 68.2787 9.42822 66.5338 9.42822C64.7887 9.42822 64.1195 10.7255 64.1195 12.3603V13.5027C64.1195 15.1376 64.7948 16.4348 66.5338 16.4348C68.2727 16.4348 68.954 15.1376 68.954 13.5027V12.3603Z" fill="#1877F2"/>
<path d="M73.9351 13.2425V12.6205C73.9351 9.06397 75.9597 6.49487 80.0862 6.49487C84.2127 6.49487 86.2373 9.06397 86.2373 12.6205V13.2425C86.2373 16.798 84.2127 19.3683 80.0862 19.3683C75.9597 19.3683 73.9351 16.798 73.9351 13.2425ZM82.5003 12.3603C82.5003 10.7255 81.8251 9.42822 80.0862 9.42822C78.3471 9.42822 77.6732 10.7255 77.6732 12.3603V13.5027C77.6732 15.1376 78.3471 16.4348 80.0862 16.4348C81.8251 16.4348 82.5003 15.1376 82.5003 13.5027V12.3603Z" fill="#1877F2"/>
<path d="M91.3752 12.6459L95.0602 6.75506H99.0305L95.1641 12.8541L99.1867 19.108H95.2162L91.3752 13.0574V19.108H87.6371V0.55194L91.3752 0.213104V12.6459Z" fill="#1877F2"/>
</g>
<defs>
<clipPath id="clip0_7_1512">
<rect width="100" height="20.6349" fill="white" transform="translate(0 0.192566)"/>
</clipPath>
</defs>
</svg>
