<svg width="100" height="20" viewBox="0 0 100 20" fill="none" xmlns="http://www.w3.org/2000/svg">
<g clip-path="url(#clip0_7_1524)">
<path fill-rule="evenodd" clip-rule="evenodd" d="M89.3152 15.5552L93.0038 10.593L89.6015 5.90436H92.5152L94.4855 8.82972L96.4733 5.90436H99.3702L95.9175 10.5762L99.5549 15.5552H96.6923L94.4519 12.4066L92.2794 15.5552H89.3152Z" fill="black"/>
<path fill-rule="evenodd" clip-rule="evenodd" d="M80.0412 10.9226C80.0412 14.1078 81.7809 15.8011 84.8626 15.8011C87.7465 15.8011 89.7015 14.1078 89.7015 10.9226V10.6544C89.7015 7.43558 87.713 5.65854 84.8626 5.65854C82.0794 5.65854 80.0412 7.40205 80.0412 10.6544V10.9226ZM87.1901 10.9233C87.1901 12.6903 86.3091 13.6496 84.8626 13.6496C83.4336 13.6496 82.5526 12.6735 82.5526 10.9233V10.6877C82.5526 8.80292 83.4832 7.80999 84.8794 7.80999C86.2923 7.80999 87.1901 8.87025 87.1901 10.6877V10.9233Z" fill="black"/>
<path fill-rule="evenodd" clip-rule="evenodd" d="M71.6148 13.7901C72.1375 15.0302 73.1827 15.8011 74.7845 15.8011C77.2626 15.8011 78.8817 13.9912 78.8817 10.7738V10.4889C78.8817 7.27151 77.1618 5.67955 74.8519 5.66279C73.3176 5.66279 72.2386 6.34984 71.6992 7.60665V2.64645H69.2208V15.5497H71.4125L71.6148 13.7901ZM76.3695 10.7969C76.3695 12.7098 75.4856 13.6496 74.0344 13.6496C72.6499 13.6496 71.7325 12.6092 71.7325 10.7969V10.5955C71.7325 8.93427 72.6833 7.80993 74.0677 7.80993C75.4021 7.80993 76.3695 8.7832 76.3695 10.562V10.7969Z" fill="black"/>
<path fill-rule="evenodd" clip-rule="evenodd" d="M58.2076 5.91578V18.8746H60.6817V14.0215C61.2034 15.149 62.2302 15.8389 63.7786 15.8389C66.0675 15.8389 67.8683 14.173 67.8683 10.9759V10.7067C67.8683 7.44221 66.2526 5.65854 63.7786 5.65854C62.1796 5.65854 61.1025 6.48307 60.5808 7.72827L60.3283 5.91578H58.2076ZM65.3566 10.9144C65.3566 12.6931 64.4391 13.6496 63.0046 13.6496C61.6202 13.6496 60.7194 12.5757 60.7194 10.8641V10.6794C60.7194 8.88391 61.6535 7.80999 63.0547 7.80999C64.3724 7.80999 65.3566 8.76651 65.3566 10.6962V10.9144Z" fill="black"/>
<path fill-rule="evenodd" clip-rule="evenodd" d="M47.1945 10.9226C47.1945 14.1078 48.9509 15.8011 52.0331 15.8011C54.9164 15.8011 56.8551 14.1078 56.8551 10.9226V10.6544C56.8551 7.43558 54.8832 5.65854 52.0331 5.65854C49.2492 5.65854 47.1945 7.40205 47.1945 10.6544V10.9226ZM54.3433 10.9233C54.3433 12.6903 53.4458 13.6496 52.0164 13.6496C50.5871 13.6496 49.7062 12.6735 49.7062 10.9233V10.6877C49.7062 8.80292 50.637 7.80999 52.0331 7.80999C53.4458 7.80999 54.3433 8.87025 54.3433 10.6877V10.9233Z" fill="black"/>
<path fill-rule="evenodd" clip-rule="evenodd" d="M40.4319 15.5553H42.9659V11.1218C42.9659 9.07298 43.4726 8.35091 45.5674 8.35091H46.6147V5.78152H45.9897C44.1822 5.78152 43.1855 6.57081 42.7969 8.1158L42.4759 5.9039H40.4319V15.5553Z" fill="black"/>
<path fill-rule="evenodd" clip-rule="evenodd" d="M29.2256 3.62991V15.5551H33.8265C36.8234 15.5551 39.0796 13.8143 39.0796 9.9645V9.14427C39.0796 5.3112 36.6888 3.62991 33.7592 3.62991H29.2256ZM31.7375 5.78136H33.6541C35.3852 5.78136 36.5678 6.87507 36.5678 9.28122V9.90381C36.5678 12.3099 35.4195 13.4037 33.7398 13.4037H31.7375V5.78136Z" fill="black"/>
<path d="M5.87846 1.14658L0.365295 4.65269L5.87846 8.1588L11.3925 4.65269L16.9057 8.1588L22.4189 4.65269L16.9057 1.14658L11.3925 4.65269L5.87846 1.14658Z" fill="#0056FE"/>
<path d="M5.87846 15.1711L0.365295 11.665L5.87846 8.15881L11.3925 11.665L5.87846 15.1711Z" fill="#0056FE"/>
<path d="M11.3926 11.665L16.9058 8.15881L22.4189 11.665L16.9058 15.1711L11.3926 11.665Z" fill="#0056FE"/>
<path d="M11.3924 19.8459L5.87836 16.3398L11.3924 12.8337L16.9056 16.3398L11.3924 19.8459Z" fill="#0056FE"/>
</g>
<defs>
<clipPath id="clip0_7_1524">
<rect width="100" height="19.084" fill="white" transform="translate(0 0.902069)"/>
</clipPath>
</defs>
</svg>
